<?xml version="1.0" encoding="utf-8"?>
<!-- Generator: Adobe Illustrator 16.0.0, SVG Export Plug-In . SVG Version: 6.00 Build 0)  -->
<!DOCTYPE svg PUBLIC "-//W3C//DTD SVG 1.1//EN" "http://www.w3.org/Graphics/SVG/1.1/DTD/svg11.dtd">
<svg version="1.1" id="Icons" xmlns="http://www.w3.org/2000/svg" xmlns:xlink="http://www.w3.org/1999/xlink" x="0px" y="0px"
	 width="67.135px" height="64.215px" viewBox="0 0 67.135 64.215" style="enable-background:new 0 0 67.135 64.215;"
	 xml:space="preserve">
<path id="inside" style="fill:#FBB141;" d="M64.15,27.574l-13.773,13.43l3.264,18.97c0.032,0.267,0.032,0.495,0.032,0.762
	c0,0.984-0.453,1.896-1.554,1.896c-0.53,0-1.063-0.19-1.515-0.456l-17.037-8.955L16.53,62.176c-0.492,0.266-0.984,0.456-1.516,0.456
	c-1.1,0-1.593-0.912-1.593-1.896c0-0.267,0.039-0.495,0.072-0.762l3.263-18.97L2.946,27.574C2.491,27.079,2,26.435,2,25.751
	c0-1.139,1.178-1.592,2.124-1.744l19.049-2.771l8.536-17.264c0.343-0.719,0.984-1.555,1.858-1.555s1.516,0.836,1.858,1.555
	l8.535,17.264l19.05,2.771c0.913,0.152,2.124,0.605,2.124,1.744C65.135,26.435,64.643,27.079,64.15,27.574"/>
<path id="outline" style="fill:none;stroke:#D3D3D3;stroke-width:4;stroke-linecap:round;stroke-linejoin:round;" d="M64.15,27.157
	l-13.773,13.43l3.264,18.97c0.032,0.267,0.032,0.495,0.032,0.762c0,0.984-0.453,1.896-1.554,1.896c-0.53,0-1.063-0.19-1.515-0.456
	l-17.037-8.955L16.53,61.759c-0.492,0.266-0.984,0.456-1.516,0.456c-1.1,0-1.593-0.912-1.593-1.896c0-0.267,0.039-0.495,0.072-0.762
	l3.263-18.97L2.946,27.157C2.491,26.662,2,26.018,2,25.334c0-1.139,1.178-1.592,2.124-1.744l19.049-2.771l8.536-17.264
	C32.052,2.836,32.693,2,33.567,2s1.516,0.836,1.858,1.555l8.535,17.264l19.05,2.771c0.913,0.152,2.124,0.605,2.124,1.744
	C65.135,26.018,64.643,26.662,64.15,27.157z"/>
</svg>
