<?xml version="1.0" encoding="utf-8"?>
<!-- Generator: Adobe Illustrator 16.0.0, SVG Export Plug-In . SVG Version: 6.00 Build 0)  -->
<!DOCTYPE svg PUBLIC "-//W3C//DTD SVG 1.1//EN" "http://www.w3.org/Graphics/SVG/1.1/DTD/svg11.dtd">
<svg version="1.1" id="ornament_x5F_swiggle" xmlns="http://www.w3.org/2000/svg" xmlns:xlink="http://www.w3.org/1999/xlink"
	 x="0px" y="0px" width="800px" height="600px" viewBox="0 0 800 600" style="enable-background:new 0 0 800 600;"
	 xml:space="preserve">
<g>
	<g>
		<path style="fill:#231F20;" d="M421.52,155.135h-5.389c0-0.124-0.063-0.242-0.063-0.367
			C417.824,155.011,419.643,155.135,421.52,155.135z"/>
	</g>
	<g>
		<path style="fill:#231F20;" d="M553.884,328.064c0.786,4.057,1.388,8.172,1.814,12.294
			C555.397,336.178,554.793,332.121,553.884,328.064z M555.698,367.967h0.059c0.123-0.904,0.184-1.875,0.242-2.785
			C555.94,366.092,555.821,366.996,555.698,367.967z M538.744,287.495c0.362,0.609,0.669,1.153,0.912,1.756l0.058-0.06
			C539.413,288.648,539.106,288.039,538.744,287.495z M525.48,268.425l2.124,2.844l1.69,2.116c0.485,0.609,0.971,1.213,1.454,1.822
			C529.118,272.901,527.304,270.601,525.48,268.425z M288.431,375.352l-0.97-6.232c0.422,4.541,1.15,9.023,2.12,13.441h0.059
			C289.154,380.201,288.732,377.775,288.431,375.352z M286.976,363.064c-0.122-1.455-0.181-2.908-0.243-4.363
			c0,2.063,0.121,4.121,0.302,6.178C287.035,364.336,286.976,363.727,286.976,363.064z M304.839,421.801c-0.061,0-0.061,0-0.121,0
			c1.938,3.328,3.995,6.598,6.236,9.742C308.774,428.398,306.713,425.129,304.839,421.801z M257.608,372.566
			c0.062,0.609,0.121,1.213,0.184,1.822c0.059,0.543,0.18,1.088,0.242,1.572C257.851,374.873,257.729,373.721,257.608,372.566z
			 M583.914,382.074c0.848-3.57,1.392-7.201,1.514-10.109C585.068,375.477,584.584,378.805,583.914,382.074z"/>
	</g>
	<g>
		<path style="fill:#231F20;" d="M301.871,467.691l6.356,6.664l0.305-0.059C306.292,472.174,304.05,469.998,301.871,467.691z
			 M265.24,406.662c-0.606-1.455-1.213-3.453-1.819-5.512l-0.18-0.123c1.999,6.723,4.42,13.262,7.385,19.619
			C268.631,416.164,266.812,411.445,265.24,406.662z M258.637,379.107c0-0.119-0.243-1.273-0.543-2.902
			c0.786,6.297,1.936,12.533,3.512,18.648v-0.484C260.334,389.342,259.306,384.316,258.637,379.107z M257.002,364.578
			c-0.059-1.572-0.18-3.27-0.301-5.025c0.059,2.299,0.121,4.541,0.363,6.84C257.002,365.725,257.002,365.182,257.002,364.578z
			 M534.807,234.271l-0.243,0.065c1.03,0.964,2.065,1.993,3.094,2.963L534.807,234.271z M554.366,256.675v0.125
			c0.905,1.147,1.817,2.359,2.662,3.631C556.242,259.159,555.336,257.888,554.366,256.675z M583.555,383.471
			c0,0.303-0.066,0.604-0.125,0.963l0.362-1.75C583.672,382.92,583.613,383.164,583.555,383.471z"/>
	</g>
	<g>
		<path style="fill:#231F20;" d="M586.34,348.17c0-0.853-0.064-1.639-0.126-2.425c0-0.485,0-0.97-0.058-1.455
			c-0.059-1.206-0.185-2.418-0.302-3.631c-0.063-1.153-0.242-2.3-0.368-3.452c0-0.119,0-0.242-0.059-0.303
			c-0.242-2.482-0.543-5.025-0.908-7.51c-0.362-2.482-0.789-5.026-1.271-7.502c-1.273-6.298-2.904-12.537-4.903-18.651
			c-0.485-1.514-1.028-3.091-1.572-4.605c-1.639-4.601-3.454-9.083-5.511-13.5c-1.096-2.36-2.241-4.725-3.454-7.025
			c-1.756-3.329-3.571-6.599-5.628-9.81c-0.669-1.029-1.271-2.058-1.94-3.028c-0.604-0.969-1.213-1.939-1.876-2.903
			c-0.365-0.668-0.851-1.271-1.335-1.939c-0.845-1.271-1.757-2.484-2.662-3.631v-0.125c-1.695-2.299-3.451-4.6-5.327-6.841
			c-1.814-2.182-3.695-4.357-5.634-6.48c-0.722-0.786-1.45-1.632-2.235-2.418l-0.427-0.426l-3.086-3.21
			c-1.028-0.97-2.063-1.999-3.094-2.963c-0.661-0.609-1.331-1.212-1.998-1.821c-5.145-4.902-10.772-9.502-16.284-13.198
			c-3.638-2.543-7.209-4.902-11.75-7.51l-5.812-3.27c-3.632-1.874-7.327-3.754-10.532-5.026c-3.82-1.815-7.693-3.329-11.69-4.718
			h-0.06l-14.534-47.837c-1.514-4.844-3.872-9.201-6.96-12.897c6.299-8.172,10.112-18.709,10.112-30.092
			c0-25.976-19.495-47.11-43.536-47.11c-23.98,0-43.538,21.134-43.538,47.11c0,11.383,3.817,21.92,10.114,30.092
			c-3.089,3.696-5.452,8.053-6.965,12.897l-14.469,47.771c-55.95,19.679-97.729,69.03-107.355,127.22
			c-1.818,8.533-2.726,17.857-2.726,28.336c0,1.757,0,3.514,0.121,5.27c0.121,1.756,0.242,3.453,0.301,5.025
			c0,0.604,0,1.146,0.062,1.814c0.06,1.09,0.122,2.184,0.243,3.27c0.059,0.428,0.059,0.912,0.121,1.391
			c0.06,0.484,0.122,1.035,0.181,1.514c0.121,1.154,0.243,2.307,0.426,3.395c0,0.117,0,0.184,0.06,0.244
			c0.301,1.629,0.543,2.783,0.543,2.902c0.668,5.209,1.697,10.234,2.969,15.262v0.484c0.484,2.057,1.091,4.115,1.635,6.174
			l0.18,0.123c0.606,2.059,1.213,4.057,1.819,5.512c1.572,4.783,3.391,9.502,5.386,13.984c0.183,0.668,0.485,1.33,0.849,2
			c0.544,1.086,1.029,2.182,1.576,3.27c0.482,1.086,1.029,2.115,1.573,3.145c0.728,1.639,1.576,3.211,2.483,4.785
			c1.452,2.666,2.966,5.207,4.542,7.75c1.815,2.846,3.693,5.629,5.63,8.355c1.212,1.639,2.424,3.213,3.633,4.844
			c0.305,0.367,0.606,0.787,0.908,1.152c1.514,2,3.089,3.938,4.783,5.873l0.062,0.059c1.635,1.939,3.392,3.818,5.147,5.695
			c0,0.059,0,0.059,0.06,0.117c2.179,2.307,4.42,4.482,6.661,6.605c21.557,20.465,48.257,34.633,77.625,41.172l2.422,0.486
			c4.967,0.969,10.114,1.873,15.259,2.299c5.753,0.729,11.687,0.971,17.683,0.971c5.752,0,11.504-0.242,17.013-0.91
			c5.269-0.486,10.599-1.213,15.685-2.42l2.66-0.426c4.24-0.971,7.995-1.881,11.75-3.027c2.424-0.668,4.725-1.395,4.725-1.572
			c3.813-1.213,7.143-2.426,10.713-3.879l3.332-1.391c3.393-1.453,6.846-3.152,9.021-4.363c2.667-1.207,5.329-2.662,6.664-3.689
			c4.176-2.182,8.048-4.6,12.109-7.385c4.058-2.852,7.872-5.754,11.017-8.48c3.638-2.969,7.268-6.115,10.421-9.266
			c11.074-10.537,20.583-22.824,28.151-36.33c1.999-3.572,3.755-6.842,3.939-7.871c1.087-1.631,1.814-3.086,3.202-5.996
			c1.213-2.785,2.309-5.51,3.337-8.354l1.204-2.787l0.971-3.389c1.338-3.754,2.483-7.51,3.453-11.506
			c1.088-4.182,2.058-8.295,2.484-11.441l0.059-0.309c0.059-0.359,0.125-0.66,0.125-0.963c0.059-0.307,0.117-0.551,0.237-0.787
			c0.064-0.182,0.064-0.424,0.122-0.609c0.67-3.27,1.154-6.598,1.514-10.109c0.059-0.119,0.12-0.303,0.059-0.428
			c0.126-1.027,0.243-2.115,0.368-3.145c0.179-1.758,0.302-3.572,0.359-5.451c0.062-0.664,0.062-1.332,0.062-2
			c0.123-2.176,0.182-4.357,0.182-6.658C586.457,352.225,586.398,350.227,586.34,348.17z M421.52,90.831
			c7.326,0,13.563,7.87,13.563,17.136c0,9.325-6.236,17.136-13.563,17.136c-7.329,0-13.564-7.812-13.564-17.136
			C407.955,98.701,414.19,90.831,421.52,90.831z M409.833,159.677c0.849-2.727,3.329-4.542,6.114-4.542h0.184
			c0-0.124-0.063-0.242-0.063-0.367c1.756,0.243,3.574,0.367,5.451,0.367h5.57c2.845,0,5.328,1.815,6.114,4.542l9.446,31.062
			c-3.754-0.485-7.268-0.728-10.295-0.728c-4.357-0.668-8.719-0.97-13.139-0.97c-6.176,0-12.412,0.604-18.768,1.574L409.833,159.677
			z M383.129,224.887c3.089-0.97,6.36-1.697,9.325-2.425c9.99-2.058,19.498-3.086,29.065-3.086h1.15c1.815,0,3.814,0,7.084,0.426
			c6.963,0.183,14.41,1.212,22.222,3.027c2.117,0.485,4.239,0.969,6.356,1.756l4.908,1.389c4.174,1.336,8.172,2.726,12.837,4.908
			c3.146,1.331,6.056,2.845,8.958,4.299l3.755,2.057c3.632,2.117,6.902,4.299,10.537,6.783c0.362,0.242,0.663,0.484,1.028,0.727
			l-31.486,9.503l-173.538,52.621C309.862,267.94,342.32,236.997,383.129,224.887z M298.479,386.801l-8.84-4.24h-0.059
			c-0.97-4.418-1.698-8.9-2.12-13.441c-0.063-0.367-0.121-0.785-0.183-1.152c-0.059-0.484-0.122-1.029-0.181-1.633
			c0-0.484-0.062-0.969-0.062-1.455c-0.181-2.057-0.302-4.115-0.302-6.178c-0.121-1.449-0.121-2.963-0.121-4.418
			c0-2.117,0.062-4.18,0.121-6.113c0.062-1.456,0.121-2.91,0.243-4.299c0.059-1.095,0.18-2.184,0.302-3.212h0.062l200.121-60.733
			l38.02-11.501c1.823,2.176,3.638,4.476,5.269,6.782c1.514,2.058,2.91,4.115,4.24,6.173c0.97,1.395,1.816,2.845,2.668,4.298
			c0.419,0.604,0.786,1.271,1.087,1.816c0.362,0.544,0.669,1.153,0.97,1.697l-0.058,0.06l-7.694,15.503l-18.526-8.905
			c-3.635-1.69-7.751-1.933-11.566-0.543c-2.057,0.728-3.877,1.88-5.391,3.33c-1.271,1.271-2.359,2.785-3.147,4.481l-8.054,17.563
			l-17.254-8.663c-3.637-1.757-7.811-2.058-11.566-0.722c-3.813,1.331-6.906,4.057-8.662,7.688l-8.777,18.349l-18.287-8.781
			c-7.447-3.572-16.287-0.544-19.921,6.841l-9.385,18.893l-18.528-8.898c-3.634-1.698-7.812-1.94-11.566-0.544
			c-3.814,1.329-6.9,4.175-8.536,7.806l-8.054,17.502l-17.257-8.598c-3.633-1.756-7.811-2.059-11.566-0.727
			c-3.814,1.27-6.9,4.055-8.657,7.686L298.479,386.801z M547.461,402.482c-0.965,2.666-1.935,5.268-3.264,8.234l-1.757,3.271
			c-1.034,2.477-2.306,4.719-3.755,7.326c-6.181,11.018-13.865,20.951-23.015,29.727c-2.601,2.605-5.445,5.025-8.597,7.568
			c-2.903,2.482-5.932,4.783-8.959,6.906c-3.027,2.059-5.936,3.873-10.354,6.357c-1.213,0.785-2.424,1.453-4.541,2.482
			c-2.426,1.271-5.026,2.543-10.295,4.842c-2.844,1.154-5.512,2.059-8.539,3.027l-4.115,1.455c-3.27,0.971-6.356,1.697-9.207,2.543
			l-3.447,0.428c-3.816,0.904-7.811,1.447-12.535,1.873c-4.299,0.484-8.297,0.787-12.533,0.787c0,0,0,0-0.063,0
			c-4.964,0.123-10.111-0.184-15.924-0.846c-4.178-0.428-8.417-1.213-12.11-1.814l-3.391-0.854
			c-17.558-4.115-33.968-11.566-48.319-21.92l150.104-45.531l54.857-16.65L547.461,402.482z M555.999,365.182
			c-0.059,0.91-0.119,1.881-0.242,2.785h-0.059l-51.409,15.621l-186.736,56.619c-0.724-0.91-1.452-1.82-2.117-2.725
			c-1.393-1.699-2.726-3.395-3.998-5.211c-0.183-0.242-0.302-0.484-0.485-0.729c-2.241-3.145-4.298-6.414-6.236-9.742
			c0.06,0,0.06,0,0.121,0h0.666c5.57,0,10.96-3.094,13.502-8.48l8.719-18.105l17.5,8.721c3.633,1.756,7.811,2.059,11.625,0.727
			c3.876-1.395,6.962-4.238,8.66-7.934l8.172-17.74l18.106,8.717c7.326,3.578,16.229,0.484,19.858-6.842l9.446-18.893l18.47,8.84
			c3.631,1.756,7.753,1.939,11.501,0.668c3.696-1.33,6.783-4.115,8.539-7.686l8.663-18.107l17.496,8.717
			c3.632,1.82,7.87,2.063,11.626,0.728c3.873-1.331,6.965-4.234,8.656-7.931l0.851-1.881l7.327-15.799l18.102,8.656
			c7.332,3.572,16.229,0.484,19.92-6.841l1.64-3.271c0.909,4.057,1.514,8.113,1.814,12.294c0.059,0.059,0.059,0.177,0.059,0.243
			c0.123,1.027,0.242,1.998,0.307,3.027c0.301,3.512,0.421,7.082,0.421,10.654C556.484,358.157,556.364,361.793,555.999,365.182z"/>
	</g>
</g>
<path id="inside" style="fill:#009EFF;" d="M493.261,418.305l-150.107,45.531c14.352,10.354,30.76,17.805,48.319,21.92l3.391,0.852
	c3.693,0.604,7.933,1.389,12.11,1.816c5.813,0.662,10.96,0.969,15.925,0.844c0.062,0,0.062,0,0.062,0
	c4.236,0,8.233-0.301,12.532-0.785c4.725-0.426,8.72-0.971,12.533-1.875l3.453-0.426c2.851-0.846,5.938-1.574,9.201-2.541
	l4.115-1.457c3.027-0.969,5.7-1.873,8.539-3.027c5.274-2.299,7.876-3.572,10.301-4.842c2.116-1.029,3.323-1.697,4.541-2.484
	c4.41-2.482,7.32-4.299,10.348-6.355c3.027-2.123,6.055-4.424,8.965-6.906c3.145-2.543,5.995-4.963,8.598-7.57
	c9.141-8.773,16.828-18.709,23.015-29.725c1.44-2.607,2.719-4.85,3.748-7.326l1.762-3.271c1.325-2.969,2.295-5.568,3.264-8.236
	l0.237-0.787L493.261,418.305z M539.159,287.453c-0.307-0.543-0.675-1.211-1.089-1.815c-0.852-1.455-1.702-2.903-2.672-4.299
	c-1.325-2.058-2.721-4.115-4.234-6.173c-1.632-2.306-3.454-4.606-5.274-6.782l-38.021,11.501L287.75,340.619h-0.062
	c-0.122,1.027-0.243,2.116-0.302,3.211c-0.122,1.389-0.18,2.844-0.243,4.299c-0.059,1.933-0.121,3.997-0.121,6.113
	c0,1.455,0,2.969,0.121,4.418c0,2.063,0.121,4.119,0.302,6.178c0,0.486,0.062,0.971,0.062,1.455
	c0.059,0.604,0.121,1.148,0.181,1.633c0.062,0.365,0.121,0.785,0.183,1.152c0.423,4.541,1.15,9.023,2.12,13.441h0.059l8.84,4.24
	l8.781-18.291c1.756-3.631,4.843-6.414,8.657-7.686c3.755-1.332,7.932-1.031,11.565,0.725l17.258,8.6l8.053-17.502
	c1.635-3.633,4.722-6.477,8.536-7.807c3.755-1.396,7.933-1.152,11.566,0.545l18.529,8.898l9.384-18.893
	c3.633-7.386,12.473-10.413,19.921-6.84l18.286,8.78l8.775-18.35c1.762-3.631,4.849-6.355,8.668-7.687
	c3.75-1.337,7.924-1.035,11.566,0.722l17.255,8.663l8.054-17.563c0.78-1.697,1.867-3.211,3.146-4.482
	c1.514-1.448,3.336-2.602,5.394-3.329c3.807-1.389,7.923-1.147,11.565,0.544l18.521,8.905l7.698-15.505l0.06-0.058
	C539.821,288.607,539.513,287.998,539.159,287.453z M556.473,343.588c-0.059-1.031-0.178-2-0.307-3.027c0-0.066,0-0.185-0.062-0.243
	c-0.295-4.182-0.897-8.237-1.809-12.294l-1.643,3.271c-3.69,7.325-12.584,10.413-19.917,6.841l-18.105-8.657l-7.32,15.8
	l-0.852,1.881c-1.69,3.696-4.789,6.6-8.657,7.93c-3.761,1.336-7.995,1.094-11.624-0.727l-17.504-8.717l-8.656,18.105
	c-1.763,3.572-4.85,6.357-8.539,7.688c-3.748,1.271-7.873,1.088-11.504-0.668l-18.469-8.84l-9.447,18.891
	c-3.631,7.328-12.533,10.42-19.859,6.844l-18.105-8.717l-8.172,17.74c-1.697,3.695-4.783,6.539-8.66,7.934
	c-3.814,1.33-7.992,1.029-11.625-0.727l-17.5-8.721l-8.719,18.105c-2.543,5.387-7.933,8.479-13.502,8.479h-0.666
	c-0.063,0-0.063,0-0.122,0c1.937,3.33,3.995,6.6,6.235,9.744c0.184,0.244,0.302,0.486,0.485,0.729
	c1.331,1.756,2.665,3.512,3.998,5.209c0.665,0.906,1.393,1.816,2.117,2.727l186.733-56.619l51.407-15.621h0.062
	c0.129-0.906,0.187-1.875,0.248-2.787c0.365-3.387,0.485-7.023,0.485-10.896C556.899,350.67,556.779,347.1,556.473,343.588z
	 M499.742,243.98c-3.645-2.484-6.908-4.666-10.537-6.783l-3.761-2.058c-2.899-1.455-5.807-2.968-8.953-4.298
	c-4.671-2.182-8.669-3.572-12.843-4.909l-4.908-1.39c-2.117-0.786-4.233-1.271-6.351-1.756c-7.817-1.815-15.263-2.844-22.225-3.027
	c-3.27-0.426-5.269-0.426-7.084-0.426h-1.15c-9.567,0-19.075,1.03-29.066,3.087c-2.965,0.728-6.235,1.455-9.325,2.424
	c-40.809,12.11-73.266,43.054-87.797,81.986l173.535-52.621l31.494-9.502C500.404,244.465,500.096,244.223,499.742,243.98z"/>
<g id="outline_1_">
	<path style="fill:#231F20;" d="M586.34,348.17c0-0.853-0.064-1.639-0.126-2.425c0-0.485,0-0.97-0.058-1.455
		c-0.059-1.206-0.185-2.418-0.302-3.631c-0.063-1.153-0.242-2.3-0.368-3.452c0-0.119,0-0.242-0.059-0.303
		c-0.242-2.482-0.543-5.025-0.908-7.51c-0.362-2.482-0.789-5.026-1.271-7.502c-1.273-6.298-2.904-12.537-4.903-18.651
		c-0.485-1.514-1.028-3.091-1.572-4.605c-1.639-4.601-3.454-9.083-5.511-13.5c-1.096-2.36-2.241-4.725-3.454-7.025
		c-1.756-3.329-3.571-6.599-5.628-9.81c-0.669-1.029-1.271-2.058-1.94-3.028c-0.604-0.969-1.213-1.939-1.876-2.903
		c-0.365-0.668-0.851-1.271-1.335-1.939c-0.845-1.271-1.757-2.484-2.662-3.631v-0.125c-1.695-2.299-3.451-4.6-5.327-6.841
		c-1.814-2.182-3.695-4.357-5.634-6.48c-0.722-0.786-1.45-1.632-2.235-2.418l-0.427-0.426l-3.086-3.21
		c-1.028-0.97-2.063-1.999-3.094-2.963c-0.661-0.609-1.331-1.212-1.998-1.821c-5.145-4.902-10.772-9.502-16.284-13.198
		c-3.638-2.543-7.209-4.902-11.75-7.51l-5.812-3.27c-3.632-1.874-7.327-3.754-10.532-5.026c-3.82-1.815-7.693-3.329-11.69-4.718
		h-0.06l-14.534-47.837c-1.514-4.844-3.872-9.201-6.96-12.897c6.299-8.172,10.112-18.709,10.112-30.092
		c0-25.976-19.495-47.11-43.536-47.11c-23.98,0-43.538,21.134-43.538,47.11c0,11.383,3.817,21.92,10.114,30.092
		c-3.089,3.696-5.452,8.053-6.965,12.897l-14.469,47.771c-55.95,19.679-97.729,69.03-107.355,127.22
		c-1.818,8.533-2.726,17.857-2.726,28.336c0,1.757,0,3.514,0.121,5.27c0.121,1.756,0.242,3.453,0.301,5.025
		c0,0.604,0,1.146,0.062,1.814c0.06,1.09,0.122,2.184,0.243,3.27c0.059,0.428,0.059,0.912,0.121,1.391
		c0.06,0.484,0.122,1.035,0.181,1.514c0.121,1.154,0.243,2.307,0.426,3.395c0,0.117,0,0.184,0.06,0.244
		c0.301,1.629,0.543,2.783,0.543,2.902c0.668,5.209,1.697,10.234,2.969,15.262v0.484c0.484,2.057,1.091,4.115,1.635,6.174
		l0.18,0.123c0.606,2.059,1.213,4.057,1.819,5.512c1.572,4.783,3.391,9.502,5.386,13.984c0.183,0.668,0.485,1.33,0.849,2
		c0.544,1.086,1.029,2.182,1.576,3.27c0.482,1.086,1.029,2.115,1.573,3.145c0.728,1.639,1.576,3.211,2.483,4.785
		c1.452,2.666,2.966,5.207,4.542,7.75c1.815,2.846,3.693,5.629,5.63,8.355c1.212,1.639,2.424,3.213,3.633,4.844
		c0.305,0.367,0.606,0.787,0.908,1.152c1.514,2,3.089,3.938,4.783,5.873l0.062,0.059c1.635,1.939,3.392,3.818,5.147,5.695
		c0,0.059,0,0.059,0.06,0.117c2.179,2.307,4.42,4.482,6.661,6.605c21.557,20.465,48.257,34.633,77.625,41.172l2.422,0.486
		c4.967,0.969,10.114,1.873,15.259,2.299c5.753,0.729,11.687,0.971,17.683,0.971c5.752,0,11.504-0.242,17.013-0.91
		c5.269-0.486,10.599-1.213,15.685-2.42l2.66-0.426c4.24-0.971,7.995-1.881,11.75-3.027c2.424-0.668,4.725-1.395,4.725-1.572
		c3.813-1.213,7.143-2.426,10.713-3.879l3.332-1.391c3.393-1.453,6.846-3.152,9.021-4.363c2.667-1.207,5.329-2.662,6.664-3.689
		c4.176-2.182,8.048-4.6,12.109-7.385c4.058-2.852,7.872-5.754,11.017-8.48c3.638-2.969,7.268-6.115,10.421-9.266
		c11.074-10.537,20.583-22.824,28.151-36.33c1.999-3.572,3.755-6.842,3.939-7.871c1.087-1.631,1.814-3.086,3.202-5.996
		c1.213-2.785,2.309-5.51,3.337-8.354l1.204-2.787l0.971-3.389c1.338-3.754,2.483-7.51,3.453-11.506
		c1.088-4.182,2.058-8.295,2.484-11.441l0.059-0.309c0.059-0.359,0.125-0.66,0.125-0.963c0.059-0.307,0.117-0.551,0.237-0.787
		c0.064-0.182,0.064-0.424,0.122-0.609c0.67-3.27,1.154-6.598,1.514-10.109c0.059-0.119,0.12-0.303,0.059-0.428
		c0.126-1.027,0.243-2.115,0.368-3.145c0.179-1.758,0.302-3.572,0.359-5.451c0.062-0.664,0.062-1.332,0.062-2
		c0.123-2.176,0.182-4.357,0.182-6.658C586.457,352.225,586.398,350.227,586.34,348.17z M421.52,90.831
		c7.326,0,13.563,7.87,13.563,17.136c0,9.325-6.236,17.136-13.563,17.136c-7.329,0-13.564-7.812-13.564-17.136
		C407.955,98.701,414.19,90.831,421.52,90.831z M409.833,159.677c0.849-2.727,3.329-4.542,6.114-4.542h0.184
		c0-0.124-0.063-0.242-0.063-0.367c1.756,0.243,3.574,0.367,5.451,0.367h5.57c2.845,0,5.328,1.815,6.114,4.542l9.446,31.062
		c-3.754-0.485-7.268-0.728-10.295-0.728c-4.357-0.668-8.719-0.97-13.139-0.97c-6.176,0-12.412,0.604-18.768,1.574L409.833,159.677z
		 M383.129,224.887c3.089-0.97,6.36-1.697,9.325-2.425c9.99-2.058,19.498-3.086,29.065-3.086h1.15c1.815,0,3.814,0,7.084,0.426
		c6.963,0.183,14.41,1.212,22.222,3.027c2.117,0.485,4.239,0.969,6.356,1.756l4.908,1.389c4.174,1.336,8.172,2.726,12.837,4.908
		c3.146,1.331,6.056,2.845,8.958,4.299l3.755,2.057c3.632,2.117,6.902,4.299,10.537,6.783c0.362,0.242,0.663,0.484,1.028,0.727
		l-31.486,9.503l-173.538,52.621C309.862,267.94,342.32,236.997,383.129,224.887z M298.479,386.801l-8.84-4.24h-0.059
		c-0.97-4.418-1.698-8.9-2.12-13.441c-0.063-0.367-0.121-0.785-0.183-1.152c-0.059-0.484-0.122-1.029-0.181-1.633
		c0-0.484-0.062-0.969-0.062-1.455c-0.181-2.057-0.302-4.115-0.302-6.178c-0.121-1.449-0.121-2.963-0.121-4.418
		c0-2.117,0.062-4.18,0.121-6.113c0.062-1.456,0.121-2.91,0.243-4.299c0.059-1.095,0.18-2.184,0.302-3.212h0.062l200.121-60.733
		l38.02-11.501c1.823,2.176,3.638,4.476,5.269,6.782c1.514,2.058,2.91,4.115,4.24,6.173c0.97,1.395,1.816,2.845,2.668,4.298
		c0.419,0.604,0.786,1.271,1.087,1.816c0.362,0.544,0.669,1.153,0.97,1.697l-0.058,0.06l-7.694,15.503l-18.526-8.905
		c-3.635-1.69-7.751-1.933-11.566-0.543c-2.057,0.728-3.877,1.88-5.391,3.33c-1.271,1.271-2.359,2.785-3.147,4.481l-8.054,17.563
		l-17.254-8.663c-3.637-1.757-7.811-2.058-11.566-0.722c-3.813,1.331-6.906,4.057-8.662,7.688l-8.777,18.349l-18.287-8.781
		c-7.447-3.572-16.287-0.544-19.921,6.841l-9.385,18.893l-18.528-8.898c-3.634-1.698-7.812-1.94-11.566-0.544
		c-3.814,1.329-6.9,4.175-8.536,7.806l-8.054,17.502l-17.257-8.598c-3.633-1.756-7.811-2.059-11.566-0.727
		c-3.814,1.27-6.9,4.055-8.657,7.686L298.479,386.801z M547.461,402.482c-0.965,2.666-1.935,5.268-3.264,8.234l-1.757,3.271
		c-1.034,2.477-2.306,4.719-3.755,7.326c-6.181,11.018-13.865,20.951-23.015,29.727c-2.601,2.605-5.445,5.025-8.597,7.568
		c-2.903,2.482-5.932,4.783-8.959,6.906c-3.027,2.059-5.936,3.873-10.354,6.357c-1.213,0.785-2.424,1.453-4.541,2.482
		c-2.426,1.271-5.026,2.543-10.295,4.842c-2.844,1.154-5.512,2.059-8.539,3.027l-4.115,1.455c-3.27,0.971-6.356,1.697-9.207,2.543
		l-3.447,0.428c-3.816,0.904-7.811,1.447-12.535,1.873c-4.299,0.484-8.297,0.787-12.533,0.787c0,0,0,0-0.063,0
		c-4.964,0.123-10.111-0.184-15.924-0.846c-4.178-0.428-8.417-1.213-12.11-1.814l-3.391-0.854
		c-17.558-4.115-33.968-11.566-48.319-21.92l150.104-45.531l54.857-16.65L547.461,402.482z M555.999,365.182
		c-0.059,0.91-0.119,1.881-0.242,2.785h-0.059l-51.409,15.621l-186.736,56.619c-0.724-0.91-1.452-1.82-2.117-2.725
		c-1.393-1.699-2.726-3.395-3.998-5.211c-0.183-0.242-0.302-0.484-0.485-0.729c-2.241-3.145-4.298-6.414-6.236-9.742
		c0.06,0,0.06,0,0.121,0h0.666c5.57,0,10.96-3.094,13.502-8.48l8.719-18.105l17.5,8.721c3.633,1.756,7.811,2.059,11.625,0.727
		c3.876-1.395,6.962-4.238,8.66-7.934l8.172-17.74l18.106,8.717c7.326,3.578,16.229,0.484,19.858-6.842l9.446-18.893l18.47,8.84
		c3.631,1.756,7.753,1.939,11.501,0.668c3.696-1.33,6.783-4.115,8.539-7.686l8.663-18.107l17.496,8.717
		c3.632,1.82,7.87,2.063,11.626,0.728c3.873-1.331,6.965-4.234,8.656-7.931l0.851-1.881l7.327-15.799l18.102,8.656
		c7.332,3.572,16.229,0.484,19.92-6.841l1.64-3.271c0.909,4.057,1.514,8.113,1.814,12.294c0.059,0.059,0.059,0.177,0.059,0.243
		c0.123,1.027,0.242,1.998,0.307,3.027c0.301,3.512,0.421,7.082,0.421,10.654C556.484,358.157,556.364,361.793,555.999,365.182z"/>
	<path id="white_x5F_inside_x5F_bot" style="fill:#FFFFFF;" d="M555.976,353.834c0,3.873-0.119,7.51-0.484,10.898
		c-0.059,0.91-0.12,1.881-0.237,2.785h-0.059l-51.408,15.623l-186.74,56.617c-0.724-0.91-1.452-1.822-2.117-2.727
		c-1.333-1.695-2.666-3.453-3.997-5.209c-0.183-0.242-0.302-0.484-0.485-0.727c-2.241-3.146-4.299-6.416-6.236-9.746
		c0.06,0,0.06,0,0.121,0h0.666c5.57,0,10.96-3.092,13.502-8.479l8.719-18.107l17.5,8.723c3.634,1.756,7.811,2.059,11.625,0.729
		c3.876-1.396,6.963-4.24,8.66-7.936l8.172-17.74l18.105,8.717c7.327,3.576,16.229,0.484,19.859-6.842l9.446-18.895l18.47,8.842
		c3.631,1.756,7.749,1.939,11.498,0.668c3.701-1.33,6.788-4.115,8.538-7.688l8.669-18.105l17.49,8.716
		c3.631,1.821,7.877,2.064,11.626,0.728c3.88-1.331,6.965-4.234,8.657-7.93l0.85-1.88l7.334-15.8l18.094,8.656
		c7.333,3.571,16.236,0.485,19.928-6.842l1.633-3.27c0.909,4.057,1.514,8.113,1.82,12.293c0.059,0.061,0.059,0.178,0.059,0.242
		c0.117,1.029,0.237,1.999,0.307,3.027C555.856,346.69,555.976,350.264,555.976,353.834z"/>
	<path id="white_x5F_inside_x5F_top" style="fill:#FFFFFF;" d="M540.223,289.192l-0.059,0.06l-7.699,15.503l-18.521-8.905
		c-3.641-1.69-7.756-1.933-11.565-0.543c-2.058,0.728-3.878,1.88-5.392,3.33c-1.277,1.271-2.365,2.785-3.146,4.481l-8.054,17.563
		l-17.254-8.663c-3.643-1.757-7.817-2.058-11.565-0.722c-3.82,1.331-6.908,4.057-8.67,7.688l-8.774,18.349l-18.286-8.781
		c-7.448-3.572-16.287-0.544-19.922,6.841l-9.384,18.893l-18.529-8.898c-3.634-1.698-7.812-1.94-11.566-0.544
		c-3.814,1.329-6.9,4.175-8.535,7.806l-8.054,17.502l-17.257-8.598c-3.634-1.756-7.812-2.059-11.567-0.727
		c-3.814,1.27-6.9,4.055-8.657,7.686l-8.781,18.291l-8.84-4.24h-0.059c-0.97-4.418-1.698-8.9-2.12-13.441
		c-0.063-0.367-0.122-0.785-0.184-1.152c-0.059-0.484-0.121-1.029-0.181-1.633c0-0.484-0.062-0.969-0.062-1.455
		c-0.18-2.057-0.302-4.115-0.302-6.178c-0.121-1.449-0.121-2.963-0.121-4.418c0-2.117,0.062-4.18,0.121-6.113
		c0.063-1.456,0.122-2.91,0.243-4.299c0.059-1.095,0.181-2.184,0.302-3.212h0.062l200.118-60.733l38.021-11.501
		c1.823,2.176,3.644,4.476,5.274,6.782c1.514,2.058,2.91,4.115,4.234,6.173c0.97,1.395,1.821,2.845,2.673,4.298
		c0.414,0.604,0.78,1.271,1.088,1.816C539.609,288.039,539.916,288.648,540.223,289.192z"/>
</g>
<path id="white_x5F_top" style="fill:#FFFFFF;" d="M442.65,107.547c0,12.406-9.263,22.458-20.689,22.458
	c-11.424,0-20.688-10.052-20.688-22.458c0-12.4,9.264-22.452,20.688-22.452C433.388,85.095,442.65,95.147,442.65,107.547z"/>
<path id="grey_x5F_top" style="fill:#A7A9AC;" d="M443.064,190.739c-3.755-0.485-7.268-0.728-10.295-0.728
	c-4.357-0.668-8.719-0.97-13.139-0.97c-6.177,0-12.412,0.604-18.768,1.574l9.383-30.938c0.85-2.727,3.33-4.542,6.115-4.542h0.183
	c0-0.124-0.062-0.242-0.062-0.367c1.756,0.243,3.574,0.367,5.451,0.367h5.57c2.844,0,5.328,1.815,6.113,4.542L443.064,190.739z"/>
</svg>
